<svg id="Capa_1" enable-background="new 0 0 512 512" height="512" viewBox="0 0 512 512" width="512" xmlns="http://www.w3.org/2000/svg"><g><path d="m111.447 329.406h42.272v-25.888h-42.272v-17.384h49.482v-26.854h-79.431v116.331h80.906v-26.854h-50.957z"/><path d="m245.359 259.28-21.137 36.701-21.136-36.701h-34.572l38.832 58.984-37.52 57.347h34.571l19.825-35.063 19.826 35.063h34.408l-37.521-57.347 38.831-58.984z"/><path d="m287.958 259.28h31.949v116.331h-31.949z"/><path d="m331.54 287.134h34.006v88.477h30.95v-88.477h34.006v-27.854h-98.962z"/><path d="m434.845 159.814c-.588-20.558-14.189-37.904-32.845-44.076v-66.42h-30v66.42c-18.656 6.172-32.257 23.518-32.845 44.076h-166.31c-.588-20.558-14.189-37.904-32.845-44.076v-66.42h-30v66.42c-18.656 6.172-32.257 23.518-32.845 44.076h-77.155v302.867h512v-302.867zm-47.845-16.495c9.859 0 17.88 8.021 17.88 17.88s-8.021 17.88-17.88 17.88-17.88-8.021-17.88-17.88 8.021-17.88 17.88-17.88zm-262 0c9.859 0 17.88 8.021 17.88 17.88s-8.021 17.88-17.88 17.88-17.88-8.021-17.88-17.88 8.021-17.88 17.88-17.88zm357 289.362h-452v-242.867h56.635c8.739 11.686 22.683 19.264 38.365 19.264s29.626-7.578 38.365-19.264h185.27c8.739 11.686 22.683 19.264 38.365 19.264s29.626-7.578 38.365-19.264h56.635z"/></g></svg>