<svg id="Capa_1" enable-background="new 0 0 512 512" height="512" viewBox="0 0 512 512" width="512" xmlns="http://www.w3.org/2000/svg"><g><path d="m387 113.319c5.239 0 10.278.858 15 2.42v-66.42h-30v66.42c4.722-1.563 9.761-2.42 15-2.42z"/><circle cx="125" cy="161.198" r="17.88"/><circle cx="387" cy="161.198" r="17.88"/><path d="m125 113.319c5.239 0 10.278.858 15 2.42v-66.42h-30v66.42c4.722-1.563 9.761-2.42 15-2.42z"/><path d="m434.845 159.814c.013.461.035.92.035 1.384 0 26.401-21.479 47.88-47.88 47.88s-47.88-21.479-47.88-47.88c0-.464.022-.923.035-1.384h-166.31c.013.461.035.92.035 1.384 0 26.401-21.479 47.88-47.88 47.88s-47.88-21.479-47.88-47.88c0-.464.022-.923.035-1.384h-77.155v302.867h512v-302.867zm-272.441 215.797h-80.906v-116.331h79.432v26.854h-49.482v17.384h42.272v25.888h-42.272v19.351h50.957v26.854zm116.052 0h-34.407l-19.826-35.063-19.825 35.063h-34.571l37.521-57.346-38.832-58.985h34.572l21.136 36.702 21.137-36.702h34.407l-38.831 58.985zm41.452 0h-31.949v-116.331h31.949zm110.594-88.477h-34.007v88.477h-30.949v-88.477h-34.006v-27.854h98.963v27.854z"/></g></svg>